<svg width="17" height="17" viewBox="0 0 17 17" fill="none" xmlns="http://www.w3.org/2000/svg">
<g clip-path="url(#clip0_646_2)">
<path d="M0.00311564 9.33472C0.00311564 7.86795 0.0130741 6.40118 0.000314826 4.93472C-0.011822 3.58186 0.815974 2.40097 1.98267 1.91738C2.3698 1.75702 2.77281 1.67732 3.19231 1.67763C5.49053 1.67857 7.78906 1.6792 10.0873 1.6748C10.2227 1.6748 10.2485 1.71874 10.2466 1.84364C10.2398 2.30808 10.2388 2.77284 10.2472 3.23729C10.2497 3.3716 10.2065 3.40016 10.0808 3.40016C7.79809 3.39671 5.51512 3.39702 3.23245 3.39796C2.61721 3.39796 2.16441 3.67851 1.87001 4.2189C1.74833 4.44203 1.69605 4.68837 1.69574 4.93974C1.69294 7.86795 1.69263 10.7962 1.6945 13.7244C1.69512 14.5971 2.3642 15.274 3.22872 15.2746C6.13783 15.2768 9.04694 15.2765 11.9561 15.2746C12.8249 15.274 13.4897 14.6012 13.4897 13.7284C13.4903 11.5675 13.4915 9.40658 13.4862 7.24565C13.4859 7.09188 13.527 7.05579 13.6745 7.05893C14.1245 7.06897 14.5751 7.06615 15.0254 7.06019C15.1415 7.05862 15.1854 7.08278 15.1851 7.2127C15.181 9.40502 15.1761 11.597 15.1838 13.7893C15.1897 15.4761 13.8214 16.9664 12.0475 16.989C10.5261 17.0084 9.00399 16.995 7.48222 16.9956C6.07932 16.9959 4.67674 17.0006 3.27384 16.994C2.09626 16.9887 1.16545 16.4982 0.510374 15.5062C0.154671 14.968 -0.00155238 14.3677 0.00124843 13.7193C0.00747246 12.2579 0.00311564 10.7965 0.00311564 9.33504V9.33472Z" fill="white"/>
<path d="M11.418 1.20254C13.2703 0.803681 15.1226 0.404508 17 0C16.6842 1.91616 16.3717 3.81223 16.0546 5.7356C15.8234 5.51342 15.6074 5.30693 15.3924 5.09918C15.1272 4.84311 14.8605 4.58861 14.6001 4.32751C14.5229 4.25 14.4799 4.23682 14.395 4.32594C13.5924 5.16791 12.7842 6.00454 11.9776 6.84274C11.0704 7.78544 10.1629 8.72783 9.25797 9.67241C9.1864 9.7471 9.14501 9.7744 9.05507 9.68528C8.6057 9.23872 8.14979 8.79938 7.69201 8.36161C7.61421 8.28723 7.59678 8.24675 7.68267 8.15794C8.95051 6.84902 10.2143 5.5357 11.4787 4.22333C11.9362 3.74821 12.3915 3.2709 12.852 2.79892C12.9217 2.72768 12.9146 2.69505 12.8458 2.62946C12.3952 2.19953 11.9496 1.76364 11.5011 1.3312C11.4681 1.2992 11.4236 1.27911 11.3847 1.25338C11.3959 1.23643 11.4071 1.21917 11.418 1.20223V1.20254Z" fill="white"/>
</g>
<defs>
<clipPath id="clip0_646_2">
<rect width="17" height="17" fill="white"/>
</clipPath>
</defs>
</svg>
