<svg width="17" height="17" viewBox="0 0 17 17" fill="none" xmlns="http://www.w3.org/2000/svg">
<path d="M0.00317667 9.33506C0.00317667 7.86829 0.0131351 6.40152 0.000375862 4.93506C-0.011761 3.5822 0.816035 2.40131 1.98273 1.91773C2.36986 1.75737 2.77287 1.67766 3.19237 1.67797C5.49059 1.67891 7.78913 1.67954 10.0873 1.67515C10.2227 1.67515 10.2486 1.71908 10.2467 1.84398C10.2398 2.30842 10.2389 2.77319 10.2473 3.23763C10.2498 3.37194 10.2065 3.4005 10.0808 3.4005C7.79815 3.39705 5.51518 3.39736 3.23251 3.39831C2.61727 3.39831 2.16447 3.67886 1.87007 4.21925C1.74839 4.44237 1.69611 4.68871 1.6958 4.94008C1.693 7.86829 1.69269 10.7965 1.69456 13.7247C1.69518 14.5974 2.36426 15.2743 3.22878 15.275C6.13789 15.2772 9.047 15.2768 11.9561 15.275C12.825 15.2743 13.4897 14.6015 13.4897 13.7288C13.4903 11.5679 13.4916 9.40693 13.4863 7.24599C13.486 7.09222 13.5271 7.05614 13.6746 7.05927C14.1246 7.06932 14.5752 7.06649 15.0255 7.06053C15.1416 7.05896 15.1854 7.08312 15.1851 7.21304C15.1811 9.40536 15.1761 11.5974 15.1839 13.7897C15.1898 15.4764 13.8215 16.9667 12.0476 16.9893C10.5261 17.0088 9.00406 16.9953 7.48228 16.9959C6.07938 16.9962 4.6768 17.0009 3.2739 16.9944C2.09632 16.989 1.16551 16.4985 0.510435 15.5066C0.154732 14.9684 -0.00149135 14.368 0.00130947 13.7197C0.00753349 12.2583 0.00317667 10.7965 0.00317667 9.33506Z" fill="#3C2F21"/>
<path d="M11.418 1.20254C13.2703 0.803681 15.1226 0.404508 17.0001 0C16.6842 1.91616 16.3718 3.81223 16.0546 5.7356C15.8234 5.51342 15.6074 5.30693 15.3924 5.09918C15.1273 4.84311 14.8606 4.58861 14.6001 4.32751C14.5229 4.25 14.48 4.23682 14.395 4.32594C13.5924 5.16791 12.7842 6.00454 11.9776 6.84274C11.0704 7.78544 10.163 8.72783 9.258 9.67241C9.18642 9.7471 9.14503 9.77441 9.05509 9.68528C8.60572 9.23872 8.14981 8.79938 7.69203 8.36161C7.61423 8.28723 7.5968 8.24675 7.68269 8.15794C8.95053 6.84902 10.2143 5.5357 11.4787 4.22333C11.9362 3.74821 12.3915 3.2709 12.8521 2.79892C12.9218 2.72768 12.9146 2.69505 12.8458 2.62946C12.3952 2.19953 11.9496 1.76364 11.5011 1.3312C11.4681 1.2992 11.4236 1.27911 11.3847 1.25338C11.3959 1.23643 11.4072 1.21949 11.418 1.20254Z" fill="#3C2F21"/>
</svg>
