<svg width="17" height="17" viewBox="0 0 17 17" fill="none" xmlns="http://www.w3.org/2000/svg">
<g clip-path="url(#clip0_513_2)">
<path d="M0.00317667 9.33497C0.00317667 7.86819 0.0131351 6.40142 0.000375862 4.93496C-0.011761 3.5821 0.816035 2.40122 1.98273 1.91763C2.36986 1.75727 2.77287 1.67756 3.19237 1.67787C5.49059 1.67881 7.78913 1.67944 10.0873 1.67505C10.2227 1.67505 10.2486 1.71898 10.2467 1.84388C10.2398 2.30833 10.2389 2.77309 10.2473 3.23753C10.2498 3.37185 10.2065 3.40041 10.0808 3.40041C7.79815 3.39695 5.51518 3.39727 3.23251 3.39821C2.61727 3.39821 2.16447 3.67876 1.87007 4.21915C1.74839 4.44227 1.69611 4.68862 1.6958 4.93998C1.693 7.86819 1.69269 10.7964 1.69456 13.7246C1.69518 14.5973 2.36426 15.2742 3.22878 15.2749C6.13789 15.2771 9.047 15.2767 11.9561 15.2749C12.825 15.2742 13.4897 14.6014 13.4897 13.7287C13.4903 11.5678 13.4916 9.40683 13.4863 7.2459C13.486 7.09213 13.5271 7.05604 13.6746 7.05918C14.1246 7.06922 14.5752 7.06639 15.0255 7.06043C15.1416 7.05886 15.1854 7.08303 15.1851 7.21295C15.1811 9.40526 15.1761 11.5973 15.1839 13.7896C15.1898 15.4763 13.8215 16.9666 12.0476 16.9892C10.5261 17.0087 9.00406 16.9952 7.48228 16.9958C6.07938 16.9961 4.6768 17.0008 3.2739 16.9943C2.09632 16.9889 1.16551 16.4984 0.510435 15.5065C0.154732 14.9683 -0.00149135 14.3679 0.00130947 13.7196C0.00753349 12.2582 0.00317667 10.7967 0.00317667 9.33528V9.33497Z" fill="#FEAA48"/>
<path d="M11.418 1.20254C13.2702 0.803681 15.1225 0.404508 17 0C16.6841 1.91616 16.3717 3.81223 16.0546 5.7356C15.8233 5.51342 15.6074 5.30693 15.3923 5.09918C15.1272 4.84311 14.8605 4.58861 14.6 4.32751C14.5228 4.25 14.4799 4.23682 14.3949 4.32594C13.5923 5.16791 12.7841 6.00454 11.9775 6.84274C11.0704 7.78544 10.1629 8.72783 9.25791 9.67241C9.18634 9.7471 9.14495 9.7744 9.05501 9.68528C8.60564 9.23872 8.14973 8.79938 7.69195 8.36161C7.61415 8.28723 7.59672 8.24675 7.68261 8.15794C8.95045 6.84902 10.2142 5.5357 11.4786 4.22333C11.9361 3.74821 12.3914 3.2709 12.852 2.79892C12.9217 2.72768 12.9145 2.69505 12.8458 2.62946C12.3951 2.19953 11.9495 1.76364 11.5011 1.3312C11.4681 1.2992 11.4236 1.27911 11.3847 1.25338C11.3959 1.23643 11.4071 1.21917 11.418 1.20223V1.20254Z" fill="#FEAA48"/>
</g>
<defs>
<clipPath id="clip0_513_2">
<rect width="17" height="17" fill="white"/>
</clipPath>
</defs>
</svg>
