<svg width="51" height="110" viewBox="0 0 51 110" fill="none" xmlns="http://www.w3.org/2000/svg">
<path d="M25.2929 109.707C25.6834 110.098 26.3166 110.098 26.7071 109.707L33.0711 103.343C33.4616 102.953 33.4616 102.319 33.0711 101.929C32.6805 101.538 32.0474 101.538 31.6568 101.929L26 107.586L20.3431 101.929C19.9526 101.538 19.3195 101.538 18.9289 101.929C18.5384 102.319 18.5384 102.953 18.9289 103.343L25.2929 109.707ZM25 29L25 109L27 109L27 29L25 29Z" fill="white"/>
<path d="M4.68 23.26C7.24 23.26 8.64 21.8 8.64 20.04C8.64 17.98 6.9 17.34 5.32 16.74C4.1 16.28 2.98 15.9 2.98 14.86C2.98 14.02 3.62 13.3 5 13.3C5.96 13.3 6.72 13.7 7.46 14.26L8.34 13.08C7.5 12.42 6.32 11.86 4.98 11.86C2.62 11.86 1.22 13.22 1.22 14.94C1.22 16.78 2.88 17.52 4.4 18.08C5.6 18.54 6.88 19.02 6.88 20.14C6.88 21.08 6.18 21.84 4.74 21.84C3.44 21.84 2.46 21.32 1.52 20.56L0.62 21.76C1.66 22.62 3.14 23.26 4.68 23.26ZM15.4755 23.26C16.7755 23.26 18.0155 22.76 18.9955 21.88L18.1955 20.66C17.5155 21.28 16.6355 21.74 15.6355 21.74C13.6355 21.74 12.2755 20.08 12.2755 17.58C12.2755 15.08 13.7155 13.38 15.6955 13.38C16.5555 13.38 17.2155 13.78 17.8555 14.34L18.7955 13.14C18.0155 12.46 17.0355 11.86 15.6155 11.86C12.8355 11.86 10.3755 13.96 10.3755 17.58C10.3755 21.18 12.5955 23.26 15.4755 23.26ZM21.3713 23H23.1913V16.02C23.9113 14.16 25.0313 13.52 25.9313 13.52C26.3713 13.52 26.6313 13.56 26.9913 13.7L27.3313 12.1C26.9913 11.92 26.6513 11.86 26.1713 11.86C24.9513 11.86 23.8513 12.74 23.0913 14.12H23.0313L22.8713 12.14H21.3713V23ZM33.1303 23.26C35.7903 23.26 38.1703 21.18 38.1703 17.58C38.1703 13.96 35.7903 11.86 33.1303 11.86C30.4703 11.86 28.0903 13.96 28.0903 17.58C28.0903 21.18 30.4703 23.26 33.1303 23.26ZM33.1303 21.74C31.2503 21.74 29.9903 20.08 29.9903 17.58C29.9903 15.08 31.2503 13.38 33.1303 13.38C35.0103 13.38 36.2903 15.08 36.2903 17.58C36.2903 20.08 35.0103 21.74 33.1303 21.74ZM42.9592 23.26C43.4592 23.26 43.7592 23.2 44.0192 23.1L43.7592 21.7C43.5592 21.74 43.4792 21.74 43.3792 21.74C43.0992 21.74 42.8592 21.52 42.8592 20.96V7.08H41.0392V20.84C41.0392 22.38 41.5992 23.26 42.9592 23.26ZM48.6623 23.26C49.1623 23.26 49.4623 23.2 49.7223 23.1L49.4623 21.7C49.2623 21.74 49.1823 21.74 49.0823 21.74C48.8023 21.74 48.5623 21.52 48.5623 20.96V7.08H46.7423V20.84C46.7423 22.38 47.3023 23.26 48.6623 23.26Z" fill="white"/>
</svg>
