<?xml version="1.0" encoding="UTF-8"?>
<svg id="_レイヤー_2" data-name="レイヤー 2" xmlns="http://www.w3.org/2000/svg" viewBox="0 0 891.16 866.2">
  <defs>
    <style>
      .cls-1 {
        fill: #ffa527;
      }
    </style>
  </defs>
  <g id="_レイヤー_1-2" data-name="レイヤー 1">
    <path class="cls-1" d="m0,63.39c21.16-5.93,43.94-7.01,65.37-1.69,14.2,3.59,27.64,9.94,40.06,17.58,32.33,19.51,63.23,52.17,103.95,46.17,15.51-2.56,28.73-12.31,41.1-21.77,18.65-14.52,37.93-30.19,58.43-42.89,15.72-9.88,32.27-18.56,49.23-26.17,24.03-10.6,49.07-19.06,74.51-25.58,34.86-8.64,72.65-13.51,107.96-3.34,61.62,17.14,127.68,65.41,125.33,136.15-2.15,55.41-41.29,102.88-86.78,130.42-40.43,24.22-84.34,19.72-128.78,15.15-23.85-2.51-48.5-5.06-72.21-7.93-23.68-2.91-46.92-8.58-70.64-10.86-17.51-1.63-35.75-2.08-53.32-.63-10.36.93-21.37,2.99-30.1,7.37-6.54,3.5-9.72,7.33-11.85,13.59-4.95,12.74,1.05,34.76,4.8,48.09,3.19,10.73,6.68,22.04,11.1,32.45.38.78.76,1.62,1.12,2.05.2.4.3-.11.54.5,7.69,14.45,17.66,25.96,29.85,37.96,10.86,10.59,22.9,20.36,36.07,29.24,17.3,11.79,37.14,22.43,55.43,33.45,5.92,3.09,12.38,7.02,18.29,10.11,59.18,32.22,126.01,51.81,193.53,63.1,103.21,16.79,209.08,15.96,313.06,5.02,0,0,15.11,315.27,15.11,315.27-13.04,0-26.15-.17-39.25-.46-216.59-5.6-461.1-56.15-633.37-194.71,0,0-8.39-6.88-8.39-6.88-1.78-1.64-5.4-4.71-7.17-6.36-57.66-51.94-110.76-114.45-132.4-191.06-6.53-23.26-9.86-47.82-9.5-72.08,0-6.7.27-13.68,1.1-20.23,7.42-60.33,38.51-129.14,95.3-158.42,18.92-9.89,41.51-13.57,62-10.34,20.83,3.23,38.69,10.85,58.38,16.23,11.45,3.24,23.08,5.91,34.74,7.81,23.27,3.82,47.01,4.18,70.39,6.5,50.07,5.27,95.34,7.7,143.66-9.12,14.39-4.93,27.76-11.59,39.81-20.91,27.31-21.22,52.52-55.34,40.11-90.05-12.37-32.6-52.88-57.26-86.92-67.14-21.48-5.79-43.6-4.38-65.73-1.25-44.54,6.9-88.47,20.45-128.33,41.67-20.65,10.91-39.19,23.91-58.94,37.09-5.21,3.42-10.5,6.74-16.02,9.8-11.52,6.55-24.86,11.74-38.44,12.84-20.18,1.67-40.14-4.58-57.24-14.64-20.82-12.24-37.98-29.99-56.99-44.16-28.15-21.96-61.54-30.2-97.31-24.03,0,0-.66-2.93-.66-2.93h0Z"/>
  </g>
</svg>